<?xml version="1.0" standalone="no"?>
<!DOCTYPE svg PUBLIC "-//W3C//DTD SVG 20010904//EN"
 "http://www.w3.org/TR/2001/REC-SVG-20010904/DTD/svg10.dtd">
<svg version="1.0" xmlns="http://www.w3.org/2000/svg"
 width="700.000000pt" height="700.000000pt" viewBox="0 0 700.000000 700.000000"
 preserveAspectRatio="xMidYMid meet">
<metadata>
Created by potrace 1.11, written by Peter Selinger 2001-2013
</metadata>
<g transform="translate(0.000000,700.000000) scale(0.100000,-0.100000)"
fill="#000000" stroke="none">
<path d="M3405 5489 c-44 -5 -94 -10 -111 -13 -99 -15 -294 -82 -364 -125 -19
-11 -42 -24 -50 -28 -49 -22 -187 -130 -260 -203 -277 -276 -436 -640 -456
-1044 -3 -55 -8 -104 -12 -110 -3 -6 -6 -26 -6 -46 -1 -32 -3 -35 -26 -31
-135 25 -230 -31 -266 -157 -18 -60 -24 -170 -13 -222 4 -19 10 -55 12 -80 29
-239 51 -321 114 -417 36 -55 133 -135 193 -159 34 -14 36 -17 53 -98 42 -204
134 -418 253 -588 123 -176 322 -344 514 -436 l99 -47 1 -45 0 -45 -73 -37
-72 -38 -230 -4 c-126 -2 -255 -9 -285 -15 -302 -60 -552 -231 -727 -496 -40
-61 -113 -206 -113 -225 0 -6 -4 -18 -9 -28 -32 -59 -68 -247 -76 -402 -3 -52
-7 -132 -10 -177 -5 -75 -4 -83 12 -83 27 -1 3814 -1 3925 0 l98 0 -5 33 c-2
17 -7 86 -10 152 -7 156 -12 213 -32 310 -45 231 -159 444 -328 610 -115 114
-170 154 -306 220 -161 78 -260 96 -542 100 l-229 2 -74 39 -74 39 0 46 0 45
78 34 c172 76 415 273 512 415 18 28 37 52 40 55 14 11 81 132 123 220 59 126
109 283 121 384 3 21 6 39 8 41 2 1 30 15 63 31 71 34 159 119 197 190 26 48
51 129 62 199 49 309 52 379 21 480 -26 88 -69 135 -141 154 -39 10 -125 8
-144 -4 -4 -3 -8 12 -7 33 1 20 -2 42 -6 48 -4 6 -9 61 -12 121 -27 577 -382
1113 -869 1313 -122 50 -278 86 -383 89 -34 1 -70 3 -80 5 -10 1 -54 -1 -98
-5z"/>
</g>
</svg>
